<?xml version="1.0" encoding="iso-8859-1"?>
<!-- Generator: Adobe Illustrator 19.0.1, SVG Export Plug-In . SVG Version: 6.00 Build 0)  -->
<svg version="1.1" xmlns="http://www.w3.org/2000/svg" xmlns:xlink="http://www.w3.org/1999/xlink" x="0px" y="0px"
	 viewBox="0 0 128 128" style="enable-background:new 0 0 128 128;" xml:space="preserve">
<g id="_x31_1">
	<path id="icon_1_" style="fill:#191919;" d="M68.918,109.572L55.77,96.045v5.635H23.099l16.014,15.8H55.77v5.618L68.918,109.572z
		 M30.019,72.946L16.492,86.094h5.618v14.383h15.817V86.094h5.602L30.019,72.946z M93.154,75.5l-4.712,14.252h9.276L93.154,75.5z
		 M93.154,75.5l-4.712,14.252h9.276L93.154,75.5z M93.154,75.5l-4.712,14.252h9.276L93.154,75.5z M121.426,50.078H83.17V10.685
		c0-5.421-4.432-9.853-9.869-9.853H9.869C4.432,0.832,0,5.264,0,10.685v63.992c0,5.437,4.432,9.852,9.869,9.852h4.547v-6.59H9.869
		c-1.812,0-3.279-1.466-3.279-3.262V10.685c0-1.796,1.466-3.262,3.279-3.262h63.432c1.812,0,3.279,1.466,3.279,3.262v39.393H57.995
		c-2.751,0-5.091,1.664-6.08,4.053c-2.191-1.746-4.152-3.493-5.931-5.19C56.858,37.21,58.687,26.238,58.802,25.562l0.071-0.362
		h8.694v-4.943H45.292v-7.381h-4.943v7.381H18.074V25.2h35.752c-0.395,1.911-2.636,10.693-11.352,20.166
		c-6.426-6.953-9.309-12.456-9.358-12.555l-2.191,1.12l-2.208,1.12c0.214,0.412,3.312,6.393,10.248,13.84
		c-4.564,4.218-10.479,8.403-18.14,12.077l2.142,4.448c8.221-3.921,14.581-8.436,19.491-12.966c2.57,2.471,5.552,5.025,8.963,7.529
		v17.958h-5.602v6.59h5.602v9.193h4.992v-0.28l16.014,16.459l-16.014,16.459c0,0-2.059,0.807,1.582,0.807h63.432
		c3.641,0,6.574-2.933,6.574-6.557V56.635C128,53.011,125.067,50.078,121.426,50.078z M102.117,103.443l-2.389-7.447H86.382
		l-2.455,7.447h-7.908l12.934-36.214h8.551l12.818,36.214H102.117z"/>
</g>
<g id="Layer_1">
</g>
</svg>
